<svg xmlns="http://www.w3.org/2000/svg" viewBox="0 0 127.14 96.36" aria-hidden="true">
<path fill="#5865F2" d="M107.7 8.07A105.15 105.15 0 0 0 81.47 0a72.06 72.06 0 0 0-3.36 6.83 97.68 97.68 0 0 0-29.2 0 72.37 72.37 0 0 0-3.36-6.83 105.89 105.89 0 0 0-26.25 8.09C2.79 32.65-1.71 56.6.54 80.21h0a105.73 105.73 0 0 0 32.17 16.15 78 78 0 0 0 6.28-10.03 68.04 68.04 0 0 1-9.89-5.18c.41-.28.82-.55 1.22-.82 19.01 8.84 39.59 8.84 58.52 0 .4.27.81.55 1.22.82a68.68 68.68 0 0 1-9.89 5.18 77.66 77.66 0 0 0 6.28 10.03 105.25 105.25 0 0 0 32.19-16.14c2.64-26.38-4.33-50.08-18.36-72.15zM42.45 65.69c-5.83 0-10.65-5.33-10.65-11.85s4.75-11.85 10.65-11.85c6.1 0 10.87 5.36 10.65 11.85-.22 6.49-4.9 11.85-10.65 11.85zm42.24 0c-5.83 0-10.65-5.33-10.65-11.85s4.75-11.85 10.65-11.85c6.1 0 10.87 5.36 10.65 11.85-.22 6.49-4.9 11.85-10.65 11.85z"/>
</svg>
