<svg xmlns="http://www.w3.org/2000/svg" viewBox="0 0 48 48" aria-hidden="true">
<path fill="#FFC107" d="M43.611 20.083H42V20H24v8h11.303C34.654 32.657 30.673 36 24 36c-6.627 0-12-5.373-12-12s5.373-12 12-12c3.059 0 5.842 1.154 7.961 3.039l5.657-5.657C33.64 5.053 28.991 3 24 3 12.955 3 3 12.955 3 24s9.955 21 21 21 21-9.955 21-21c0-1.341-.138-2.65-.389-3.917z"/>
<path fill="#FF3D00" d="M6.306 14.691l6.571 4.819C13.655 15.108 17.261 12 24 12c3.059 0 5.842 1.154 7.961 3.039l5.657-5.657C33.64 5.053 28.991 3 24 3 16.318 3 9.656 8.337 6.306 14.691z"/>
<path fill="#4CAF50" d="M24 45c6.627 0 12.005-5.373 12.012-12.012H24V45z"/>
<path fill="#1976D2" d="M43.611 20.083H24v8h11.303a12.04 12.04 0 0 1-4.087 5.571l6.571 4.819C42.145 36.091 45 30.673 45 24c0-1.341-.138-2.65-.389-3.917z"/>
</svg>
